<!-- Reddit Snoo mark from SVG Repo (CC0). Used under nominative fair use. -->
<svg xmlns="http://www.w3.org/2000/svg" viewBox="0 0 256 256" aria-hidden="true">
  <circle cx="128" cy="128" r="128" fill="#FF4500"/>
  <path d="M213.15 129.22c0-10.38-8.39-18.62-18.62-18.62a18.6 18.6 0 0 0-12.97 5.19 53 53 0 0 0-49.9-15.87l8.54-40.08 27.78 5.95a13.22 13.22 0 1 0 2.62-10.57l-30.98-6.56c-.92-.16-1.83 0-2.45.46-.76.45-1.22 1.22-1.37 2.13l-9.46 44.56c-19.84.61-37.69 6.56-50.66 15.87-3.36-3.21-7.94-5.19-12.97-5.19-10.38 0-18.62 8.39-18.62 18.62a18.6 18.6 0 0 0 10.99 16.94c-.31 1.83-.46 3.66-.46 5.64 0 28.69 33.42 52.04 74.62 52.04s74.62-23.2 74.62-52.04c0-1.83-.15-3.82-.46-5.64a18.6 18.6 0 0 0 10.99-17.1zM85.27 142.5a13.28 13.28 0 1 1 26.55 0 13.28 13.28 0 0 1-26.55 0zm74.32 35.25c-9.16 9.16-26.55 9.77-31.59 9.77-5.19 0-22.58-.77-31.59-9.77a1.73 1.73 0 0 1 2.44-2.44c5.8 5.8 18.01 7.78 29.15 7.78s23.5-2 29.15-7.78a1.73 1.73 0 0 1 2.44 2.44zm-2.44-21.82a13.28 13.28 0 1 1 0-26.55 13.28 13.28 0 0 1 0 26.55z" fill="#fff"/>
</svg>
